<mxfile host="app.diagrams.net" agent="Mozilla/5.0 (Windows NT 10.0; Win64; x64) AppleWebKit/537.36 (KHTML, like Gecko) Chrome/134.0.0.0 Safari/537.36" version="26.1.1">
  <diagram name="Page-1" id="9J3bDN8hr3YQZYU7l2nA">
    <mxGraphModel dx="1500" dy="746" grid="1" gridSize="10" guides="1" tooltips="1" connect="1" arrows="1" fold="1" page="1" pageScale="1" pageWidth="850" pageHeight="1100" math="0" shadow="0">
      <root>
        <mxCell id="0" />
        <mxCell id="1" parent="0" />
        <mxCell id="-R6cq3LP6N298Q4OorzW-21" style="edgeStyle=orthogonalEdgeStyle;rounded=0;orthogonalLoop=1;jettySize=auto;html=1;entryX=0;entryY=0.5;entryDx=0;entryDy=0;" edge="1" parent="1" source="-R6cq3LP6N298Q4OorzW-6" target="-R6cq3LP6N298Q4OorzW-16">
          <mxGeometry relative="1" as="geometry" />
        </mxCell>
        <mxCell id="-R6cq3LP6N298Q4OorzW-6" value="left_camera_node" style="ellipse;whiteSpace=wrap;html=1;" vertex="1" parent="1">
          <mxGeometry y="140" width="120" height="60" as="geometry" />
        </mxCell>
        <mxCell id="-R6cq3LP6N298Q4OorzW-22" style="edgeStyle=orthogonalEdgeStyle;rounded=0;orthogonalLoop=1;jettySize=auto;html=1;entryX=0;entryY=0.5;entryDx=0;entryDy=0;" edge="1" parent="1" source="-R6cq3LP6N298Q4OorzW-15" target="-R6cq3LP6N298Q4OorzW-19">
          <mxGeometry relative="1" as="geometry" />
        </mxCell>
        <mxCell id="-R6cq3LP6N298Q4OorzW-15" value="right_camera_node" style="ellipse;whiteSpace=wrap;html=1;" vertex="1" parent="1">
          <mxGeometry y="240" width="120" height="60" as="geometry" />
        </mxCell>
        <mxCell id="-R6cq3LP6N298Q4OorzW-24" style="edgeStyle=orthogonalEdgeStyle;rounded=0;orthogonalLoop=1;jettySize=auto;html=1;entryX=0;entryY=0.5;entryDx=0;entryDy=0;" edge="1" parent="1" source="-R6cq3LP6N298Q4OorzW-16" target="-R6cq3LP6N298Q4OorzW-17">
          <mxGeometry relative="1" as="geometry" />
        </mxCell>
        <mxCell id="-R6cq3LP6N298Q4OorzW-16" value="left_inference_node" style="ellipse;whiteSpace=wrap;html=1;" vertex="1" parent="1">
          <mxGeometry x="230" y="140" width="120" height="60" as="geometry" />
        </mxCell>
        <mxCell id="-R6cq3LP6N298Q4OorzW-29" style="rounded=0;orthogonalLoop=1;jettySize=auto;html=1;" edge="1" parent="1" source="-R6cq3LP6N298Q4OorzW-17" target="-R6cq3LP6N298Q4OorzW-18">
          <mxGeometry relative="1" as="geometry" />
        </mxCell>
        <mxCell id="-R6cq3LP6N298Q4OorzW-17" value="left_post_node" style="ellipse;whiteSpace=wrap;html=1;" vertex="1" parent="1">
          <mxGeometry x="480" y="140" width="120" height="60" as="geometry" />
        </mxCell>
        <mxCell id="-R6cq3LP6N298Q4OorzW-36" style="edgeStyle=orthogonalEdgeStyle;rounded=0;orthogonalLoop=1;jettySize=auto;html=1;exitX=1;exitY=0.5;exitDx=0;exitDy=0;dashed=1;" edge="1" parent="1" source="-R6cq3LP6N298Q4OorzW-18">
          <mxGeometry relative="1" as="geometry">
            <mxPoint x="920" y="219.5" as="targetPoint" />
          </mxGeometry>
        </mxCell>
        <mxCell id="-R6cq3LP6N298Q4OorzW-18" value="proxy_node" style="ellipse;whiteSpace=wrap;html=1;" vertex="1" parent="1">
          <mxGeometry x="740" y="190" width="120" height="60" as="geometry" />
        </mxCell>
        <mxCell id="-R6cq3LP6N298Q4OorzW-27" style="edgeStyle=orthogonalEdgeStyle;rounded=0;orthogonalLoop=1;jettySize=auto;html=1;entryX=0;entryY=0.5;entryDx=0;entryDy=0;" edge="1" parent="1" source="-R6cq3LP6N298Q4OorzW-19" target="-R6cq3LP6N298Q4OorzW-20">
          <mxGeometry relative="1" as="geometry" />
        </mxCell>
        <mxCell id="-R6cq3LP6N298Q4OorzW-19" value="right_inference_node" style="ellipse;whiteSpace=wrap;html=1;" vertex="1" parent="1">
          <mxGeometry x="230" y="240" width="120" height="60" as="geometry" />
        </mxCell>
        <mxCell id="-R6cq3LP6N298Q4OorzW-30" style="rounded=0;orthogonalLoop=1;jettySize=auto;html=1;entryX=0;entryY=0.5;entryDx=0;entryDy=0;" edge="1" parent="1" source="-R6cq3LP6N298Q4OorzW-20" target="-R6cq3LP6N298Q4OorzW-18">
          <mxGeometry relative="1" as="geometry" />
        </mxCell>
        <mxCell id="-R6cq3LP6N298Q4OorzW-20" value="right_post_node" style="ellipse;whiteSpace=wrap;html=1;" vertex="1" parent="1">
          <mxGeometry x="480" y="240" width="120" height="60" as="geometry" />
        </mxCell>
        <mxCell id="-R6cq3LP6N298Q4OorzW-23" value="/left_image_input" style="text;html=1;align=center;verticalAlign=middle;whiteSpace=wrap;rounded=0;" vertex="1" parent="1">
          <mxGeometry x="150" y="140" width="60" height="30" as="geometry" />
        </mxCell>
        <mxCell id="-R6cq3LP6N298Q4OorzW-25" value="/left_inference_out" style="text;html=1;align=center;verticalAlign=middle;whiteSpace=wrap;rounded=0;" vertex="1" parent="1">
          <mxGeometry x="390" y="140" width="60" height="30" as="geometry" />
        </mxCell>
        <mxCell id="-R6cq3LP6N298Q4OorzW-26" value="/right_image_input" style="text;html=1;align=center;verticalAlign=middle;whiteSpace=wrap;rounded=0;" vertex="1" parent="1">
          <mxGeometry x="140" y="240" width="60" height="30" as="geometry" />
        </mxCell>
        <mxCell id="-R6cq3LP6N298Q4OorzW-28" value="/right_inference_out" style="text;html=1;align=center;verticalAlign=middle;whiteSpace=wrap;rounded=0;" vertex="1" parent="1">
          <mxGeometry x="390" y="240" width="60" height="30" as="geometry" />
        </mxCell>
        <mxCell id="-R6cq3LP6N298Q4OorzW-31" value="/extermination_out" style="text;html=1;align=center;verticalAlign=middle;whiteSpace=wrap;rounded=0;rotation=15;" vertex="1" parent="1">
          <mxGeometry x="640" y="170" width="60" height="30" as="geometry" />
        </mxCell>
        <mxCell id="-R6cq3LP6N298Q4OorzW-32" value="/extermination_out" style="text;html=1;align=center;verticalAlign=middle;whiteSpace=wrap;rounded=0;rotation=-15;" vertex="1" parent="1">
          <mxGeometry x="640" y="240" width="60" height="30" as="geometry" />
        </mxCell>
        <mxCell id="-R6cq3LP6N298Q4OorzW-37" value="Send info to arduino" style="text;html=1;align=center;verticalAlign=middle;whiteSpace=wrap;rounded=0;" vertex="1" parent="1">
          <mxGeometry x="880" y="170" width="60" height="30" as="geometry" />
        </mxCell>
        <mxCell id="-R6cq3LP6N298Q4OorzW-38" value="" style="endArrow=classic;html=1;rounded=0;dashed=1;" edge="1" parent="1">
          <mxGeometry width="50" height="50" relative="1" as="geometry">
            <mxPoint x="539.73" y="370" as="sourcePoint" />
            <mxPoint x="539.73" y="300" as="targetPoint" />
          </mxGeometry>
        </mxCell>
        <mxCell id="-R6cq3LP6N298Q4OorzW-39" value="" style="endArrow=classic;html=1;rounded=0;dashed=1;exitX=0.5;exitY=1;exitDx=0;exitDy=0;" edge="1" parent="1" source="-R6cq3LP6N298Q4OorzW-20">
          <mxGeometry width="50" height="50" relative="1" as="geometry">
            <mxPoint x="530" y="300" as="sourcePoint" />
            <mxPoint x="520" y="360" as="targetPoint" />
          </mxGeometry>
        </mxCell>
        <mxCell id="-R6cq3LP6N298Q4OorzW-40" value="/right_get_row_count service" style="text;html=1;align=center;verticalAlign=middle;whiteSpace=wrap;rounded=0;" vertex="1" parent="1">
          <mxGeometry x="570" y="320" width="60" height="30" as="geometry" />
        </mxCell>
        <mxCell id="-R6cq3LP6N298Q4OorzW-41" value="" style="endArrow=classic;html=1;rounded=0;dashed=1;exitX=0.5;exitY=0;exitDx=0;exitDy=0;" edge="1" parent="1">
          <mxGeometry width="50" height="50" relative="1" as="geometry">
            <mxPoint x="550" y="140" as="sourcePoint" />
            <mxPoint x="530" y="90" as="targetPoint" />
          </mxGeometry>
        </mxCell>
        <mxCell id="-R6cq3LP6N298Q4OorzW-42" value="" style="endArrow=classic;html=1;rounded=0;dashed=1;" edge="1" parent="1">
          <mxGeometry width="50" height="50" relative="1" as="geometry">
            <mxPoint x="550" y="90" as="sourcePoint" />
            <mxPoint x="550" y="140" as="targetPoint" />
          </mxGeometry>
        </mxCell>
        <mxCell id="-R6cq3LP6N298Q4OorzW-43" value="/left_get_row_count service" style="text;html=1;align=center;verticalAlign=middle;whiteSpace=wrap;rounded=0;" vertex="1" parent="1">
          <mxGeometry x="580" y="100" width="60" height="30" as="geometry" />
        </mxCell>
        <mxCell id="-R6cq3LP6N298Q4OorzW-46" value="Camera Node" style="swimlane;fontStyle=0;childLayout=stackLayout;horizontal=1;startSize=30;horizontalStack=0;resizeParent=1;resizeParentMax=0;resizeLast=0;collapsible=1;marginBottom=0;whiteSpace=wrap;html=1;" vertex="1" parent="1">
          <mxGeometry y="420" width="140" height="90" as="geometry" />
        </mxCell>
        <mxCell id="-R6cq3LP6N298Q4OorzW-47" value="Connects to Zed Camera" style="text;strokeColor=none;fillColor=none;align=left;verticalAlign=middle;spacingLeft=4;spacingRight=4;overflow=hidden;points=[[0,0.5],[1,0.5]];portConstraint=eastwest;rotatable=0;whiteSpace=wrap;html=1;" vertex="1" parent="-R6cq3LP6N298Q4OorzW-46">
          <mxGeometry y="30" width="140" height="30" as="geometry" />
        </mxCell>
        <mxCell id="-R6cq3LP6N298Q4OorzW-48" value="Image preprocessing" style="text;strokeColor=none;fillColor=none;align=left;verticalAlign=middle;spacingLeft=4;spacingRight=4;overflow=hidden;points=[[0,0.5],[1,0.5]];portConstraint=eastwest;rotatable=0;whiteSpace=wrap;html=1;" vertex="1" parent="-R6cq3LP6N298Q4OorzW-46">
          <mxGeometry y="60" width="140" height="30" as="geometry" />
        </mxCell>
        <mxCell id="-R6cq3LP6N298Q4OorzW-50" value="Inference Node" style="swimlane;fontStyle=0;childLayout=stackLayout;horizontal=1;startSize=30;horizontalStack=0;resizeParent=1;resizeParentMax=0;resizeLast=0;collapsible=1;marginBottom=0;whiteSpace=wrap;html=1;" vertex="1" parent="1">
          <mxGeometry x="230" y="420" width="140" height="100" as="geometry" />
        </mxCell>
        <mxCell id="-R6cq3LP6N298Q4OorzW-51" value="Instantiates model" style="text;strokeColor=none;fillColor=none;align=left;verticalAlign=middle;spacingLeft=4;spacingRight=4;overflow=hidden;points=[[0,0.5],[1,0.5]];portConstraint=eastwest;rotatable=0;whiteSpace=wrap;html=1;" vertex="1" parent="-R6cq3LP6N298Q4OorzW-50">
          <mxGeometry y="30" width="140" height="30" as="geometry" />
        </mxCell>
        <mxCell id="-R6cq3LP6N298Q4OorzW-52" value="Runs inference on image" style="text;strokeColor=none;fillColor=none;align=left;verticalAlign=middle;spacingLeft=4;spacingRight=4;overflow=hidden;points=[[0,0.5],[1,0.5]];portConstraint=eastwest;rotatable=0;whiteSpace=wrap;html=1;" vertex="1" parent="-R6cq3LP6N298Q4OorzW-50">
          <mxGeometry y="60" width="140" height="40" as="geometry" />
        </mxCell>
        <mxCell id="-R6cq3LP6N298Q4OorzW-53" value="Post-Inference Node" style="swimlane;fontStyle=0;childLayout=stackLayout;horizontal=1;startSize=30;horizontalStack=0;resizeParent=1;resizeParentMax=0;resizeLast=0;collapsible=1;marginBottom=0;whiteSpace=wrap;html=1;" vertex="1" parent="1">
          <mxGeometry x="480" y="420" width="200" height="140" as="geometry" />
        </mxCell>
        <mxCell id="-R6cq3LP6N298Q4OorzW-54" value="Connects to Zed Camera" style="text;strokeColor=none;fillColor=none;align=left;verticalAlign=middle;spacingLeft=4;spacingRight=4;overflow=hidden;points=[[0,0.5],[1,0.5]];portConstraint=eastwest;rotatable=0;whiteSpace=wrap;html=1;" vertex="1" parent="-R6cq3LP6N298Q4OorzW-53">
          <mxGeometry y="30" width="200" height="30" as="geometry" />
        </mxCell>
        <mxCell id="-R6cq3LP6N298Q4OorzW-60" value="Image preprocessing&lt;span style=&quot;color: rgba(0, 0, 0, 0); font-family: monospace; font-size: 0px; text-wrap-mode: nowrap;&quot;&gt;%3CmxGraphModel%3E%3Croot%3E%3CmxCell%20id%3D%220%22%2F%3E%3CmxCell%20id%3D%221%22%20parent%3D%220%22%2F%3E%3CmxCell%20id%3D%222%22%20value%3D%22Post-Inference%20Node%22%20style%3D%22swimlane%3BfontStyle%3D0%3BchildLayout%3DstackLayout%3Bhorizontal%3D1%3BstartSize%3D30%3BhorizontalStack%3D0%3BresizeParent%3D1%3BresizeParentMax%3D0%3BresizeLast%3D0%3Bcollapsible%3D1%3BmarginBottom%3D0%3BwhiteSpace%3Dwrap%3Bhtml%3D1%3B%22%20vertex%3D%221%22%20parent%3D%221%22%3E%3CmxGeometry%20x%3D%22480%22%20y%3D%22420%22%20width%3D%22140%22%20height%3D%2290%22%20as%3D%22geometry%22%2F%3E%3C%2FmxCell%3E%3CmxCell%20id%3D%223%22%20value%3D%22Connects%20to%20Zed%20Camera%22%20style%3D%22text%3BstrokeColor%3Dnone%3BfillColor%3Dnone%3Balign%3Dleft%3BverticalAlign%3Dmiddle%3BspacingLeft%3D4%3BspacingRight%3D4%3Boverflow%3Dhidden%3Bpoints%3D%5B%5B0%2C0.5%5D%2C%5B1%2C0.5%5D%5D%3BportConstraint%3Deastwest%3Brotatable%3D0%3BwhiteSpace%3Dwrap%3Bhtml%3D1%3B%22%20vertex%3D%221%22%20parent%3D%222%22%3E%3CmxGeometry%20y%3D%2230%22%20width%3D%22140%22%20height%3D%2230%22%20as%3D%22geometry%22%2F%3E%3C%2FmxCell%3E%3CmxCell%20id%3D%224%22%20value%3D%22Image%20preprocessing%22%20style%3D%22text%3BstrokeColor%3Dnone%3BfillColor%3Dnone%3Balign%3Dleft%3BverticalAlign%3Dmiddle%3BspacingLeft%3D4%3BspacingRight%3D4%3Boverflow%3Dhidden%3Bpoints%3D%5B%5B0%2C0.5%5D%2C%5B1%2C0.5%5D%5D%3BportConstraint%3Deastwest%3Brotatable%3D0%3BwhiteSpace%3Dwrap%3Bhtml%3D1%3B%22%20vertex%3D%221%22%20parent%3D%222%22%3E%3CmxGeometry%20y%3D%2260%22%20width%3D%22140%22%20height%3D%2230%22%20as%3D%22geometry%22%2F%3E%3C%2FmxCell%3E%3C%2Froot%3E%3C%2FmxGraphModel%3E&lt;/span&gt;" style="text;strokeColor=none;fillColor=none;align=left;verticalAlign=middle;spacingLeft=4;spacingRight=4;overflow=hidden;points=[[0,0.5],[1,0.5]];portConstraint=eastwest;rotatable=0;whiteSpace=wrap;html=1;" vertex="1" parent="-R6cq3LP6N298Q4OorzW-53">
          <mxGeometry y="60" width="200" height="20" as="geometry" />
        </mxCell>
        <mxCell id="-R6cq3LP6N298Q4OorzW-55" value="provides get_row_count service that can be called by another process to return a count of the number of plants&amp;nbsp;" style="text;strokeColor=none;fillColor=none;align=left;verticalAlign=middle;spacingLeft=4;spacingRight=4;overflow=hidden;points=[[0,0.5],[1,0.5]];portConstraint=eastwest;rotatable=0;whiteSpace=wrap;html=1;" vertex="1" parent="-R6cq3LP6N298Q4OorzW-53">
          <mxGeometry y="80" width="200" height="60" as="geometry" />
        </mxCell>
        <mxCell id="-R6cq3LP6N298Q4OorzW-57" value="Proxy Node" style="swimlane;fontStyle=0;childLayout=stackLayout;horizontal=1;startSize=30;horizontalStack=0;resizeParent=1;resizeParentMax=0;resizeLast=0;collapsible=1;marginBottom=0;whiteSpace=wrap;html=1;" vertex="1" parent="1">
          <mxGeometry x="740" y="420" width="140" height="140" as="geometry" />
        </mxCell>
        <mxCell id="-R6cq3LP6N298Q4OorzW-58" value="Combines processed data from both left and right nodes" style="text;strokeColor=none;fillColor=none;align=left;verticalAlign=middle;spacingLeft=4;spacingRight=4;overflow=hidden;points=[[0,0.5],[1,0.5]];portConstraint=eastwest;rotatable=0;whiteSpace=wrap;html=1;" vertex="1" parent="-R6cq3LP6N298Q4OorzW-57">
          <mxGeometry y="30" width="140" height="60" as="geometry" />
        </mxCell>
        <mxCell id="-R6cq3LP6N298Q4OorzW-59" value="Sends a single boolean sprayer signal to the arduino&amp;nbsp;" style="text;strokeColor=none;fillColor=none;align=left;verticalAlign=middle;spacingLeft=4;spacingRight=4;overflow=hidden;points=[[0,0.5],[1,0.5]];portConstraint=eastwest;rotatable=0;whiteSpace=wrap;html=1;" vertex="1" parent="-R6cq3LP6N298Q4OorzW-57">
          <mxGeometry y="90" width="140" height="50" as="geometry" />
        </mxCell>
        <mxCell id="-R6cq3LP6N298Q4OorzW-61" value="/image_input topic" style="swimlane;fontStyle=0;childLayout=stackLayout;horizontal=1;startSize=30;horizontalStack=0;resizeParent=1;resizeParentMax=0;resizeLast=0;collapsible=1;marginBottom=0;whiteSpace=wrap;html=1;" vertex="1" parent="1">
          <mxGeometry x="10" y="600" width="240" height="90" as="geometry" />
        </mxCell>
        <mxCell id="-R6cq3LP6N298Q4OorzW-73" value="&amp;nbsp;&lt;b&gt;sensor_msgs/Image &lt;/b&gt;preprocessed_image" style="text;whiteSpace=wrap;html=1;" vertex="1" parent="-R6cq3LP6N298Q4OorzW-61">
          <mxGeometry y="30" width="240" height="30" as="geometry" />
        </mxCell>
        <mxCell id="-R6cq3LP6N298Q4OorzW-72" value="&lt;b&gt;sensor_msgs/Image &lt;/b&gt;raw_image" style="text;strokeColor=none;fillColor=none;align=left;verticalAlign=middle;spacingLeft=4;spacingRight=4;overflow=hidden;points=[[0,0.5],[1,0.5]];portConstraint=eastwest;rotatable=0;whiteSpace=wrap;html=1;" vertex="1" parent="-R6cq3LP6N298Q4OorzW-61">
          <mxGeometry y="60" width="240" height="30" as="geometry" />
        </mxCell>
        <mxCell id="-R6cq3LP6N298Q4OorzW-64" value="/inference_out topic" style="swimlane;fontStyle=0;childLayout=stackLayout;horizontal=1;startSize=30;horizontalStack=0;resizeParent=1;resizeParentMax=0;resizeLast=0;collapsible=1;marginBottom=0;whiteSpace=wrap;html=1;" vertex="1" parent="1">
          <mxGeometry x="270" y="600" width="275" height="150" as="geometry" />
        </mxCell>
        <mxCell id="-R6cq3LP6N298Q4OorzW-65" value="&lt;b&gt;std_msgs/Float32MultiArray&lt;/b&gt; bounding_boxes&amp;nbsp;" style="text;strokeColor=none;fillColor=none;align=left;verticalAlign=middle;spacingLeft=4;spacingRight=4;overflow=hidden;points=[[0,0.5],[1,0.5]];portConstraint=eastwest;rotatable=0;whiteSpace=wrap;html=1;" vertex="1" parent="-R6cq3LP6N298Q4OorzW-64">
          <mxGeometry y="30" width="275" height="30" as="geometry" />
        </mxCell>
        <mxCell id="-R6cq3LP6N298Q4OorzW-69" value="&lt;span style=&quot;color: rgb(0, 0, 0); font-family: Helvetica; font-size: 12px; font-style: normal; font-variant-ligatures: normal; font-variant-caps: normal; letter-spacing: normal; orphans: 2; text-align: left; text-indent: 0px; text-transform: none; widows: 2; word-spacing: 0px; -webkit-text-stroke-width: 0px; white-space: normal; background-color: rgb(251, 251, 251); text-decoration-thickness: initial; text-decoration-style: initial; text-decoration-color: initial; float: none; display: inline !important;&quot;&gt;&lt;b&gt;&amp;nbsp;std_msgs/Float32MultiArray &lt;/b&gt;&lt;/span&gt;&lt;span style=&quot;color: rgb(0, 0, 0); font-family: Helvetica; font-size: 12px; font-style: normal; font-variant-ligatures: normal; font-variant-caps: normal; font-weight: 400; letter-spacing: normal; orphans: 2; text-align: left; text-indent: 0px; text-transform: none; widows: 2; word-spacing: 0px; -webkit-text-stroke-width: 0px; white-space: normal; background-color: rgb(251, 251, 251); text-decoration-thickness: initial; text-decoration-style: initial; text-decoration-color: initial; float: none; display: inline !important;&quot;&gt;confidence&amp;nbsp;&lt;/span&gt;" style="text;whiteSpace=wrap;html=1;" vertex="1" parent="-R6cq3LP6N298Q4OorzW-64">
          <mxGeometry y="60" width="275" height="30" as="geometry" />
        </mxCell>
        <mxCell id="-R6cq3LP6N298Q4OorzW-70" value="&lt;b&gt;sensor_msgs/Image &lt;/b&gt;raw_image" style="text;strokeColor=none;fillColor=none;align=left;verticalAlign=middle;spacingLeft=4;spacingRight=4;overflow=hidden;points=[[0,0.5],[1,0.5]];portConstraint=eastwest;rotatable=0;whiteSpace=wrap;html=1;" vertex="1" parent="-R6cq3LP6N298Q4OorzW-64">
          <mxGeometry y="90" width="275" height="30" as="geometry" />
        </mxCell>
        <mxCell id="-R6cq3LP6N298Q4OorzW-71" value="&amp;nbsp;&lt;b&gt;sensor_msgs/Image &lt;/b&gt;preprocessed_image" style="text;whiteSpace=wrap;html=1;" vertex="1" parent="-R6cq3LP6N298Q4OorzW-64">
          <mxGeometry y="120" width="275" height="30" as="geometry" />
        </mxCell>
        <mxCell id="-R6cq3LP6N298Q4OorzW-67" value="/extermination_out topic" style="swimlane;fontStyle=0;childLayout=stackLayout;horizontal=1;startSize=30;horizontalStack=0;resizeParent=1;resizeParentMax=0;resizeLast=0;collapsible=1;marginBottom=0;whiteSpace=wrap;html=1;" vertex="1" parent="1">
          <mxGeometry x="720" y="600" width="280" height="60" as="geometry" />
        </mxCell>
        <mxCell id="-R6cq3LP6N298Q4OorzW-68" value="&lt;b&gt;std_msgs/Float32MultiArray &lt;/b&gt;bounding_boxes&amp;nbsp;" style="text;strokeColor=none;fillColor=none;align=left;verticalAlign=middle;spacingLeft=4;spacingRight=4;overflow=hidden;points=[[0,0.5],[1,0.5]];portConstraint=eastwest;rotatable=0;whiteSpace=wrap;html=1;" vertex="1" parent="-R6cq3LP6N298Q4OorzW-67">
          <mxGeometry y="30" width="280" height="30" as="geometry" />
        </mxCell>
        <mxCell id="-R6cq3LP6N298Q4OorzW-75" value="/right_get_row_count service" style="swimlane;fontStyle=0;childLayout=stackLayout;horizontal=1;startSize=30;horizontalStack=0;resizeParent=1;resizeParentMax=0;resizeLast=0;collapsible=1;marginBottom=0;whiteSpace=wrap;html=1;" vertex="1" parent="1">
          <mxGeometry x="560" y="600" width="130" height="60" as="geometry" />
        </mxCell>
        <mxCell id="-R6cq3LP6N298Q4OorzW-76" value="&lt;div&gt;---&lt;/div&gt;&lt;div&gt;&lt;b&gt;int16 &lt;/b&gt;plant_count&lt;/div&gt;" style="text;strokeColor=none;fillColor=none;align=left;verticalAlign=middle;spacingLeft=4;spacingRight=4;overflow=hidden;points=[[0,0.5],[1,0.5]];portConstraint=eastwest;rotatable=0;whiteSpace=wrap;html=1;" vertex="1" parent="-R6cq3LP6N298Q4OorzW-75">
          <mxGeometry y="30" width="130" height="30" as="geometry" />
        </mxCell>
      </root>
    </mxGraphModel>
  </diagram>
</mxfile>
